<svg xmlns="http://www.w3.org/2000/svg" viewBox="0 0 1440 900" width="1440" height="900">
  <defs>
    <style>
      .ui  { font-family: 'Inter', system-ui, sans-serif; }
      .mono{ font-family: 'Courier New', monospace; }
    </style>
  </defs>

  <!-- background -->
  <rect width="1440" height="900" fill="#07090f"/>

  <!-- classification banner top -->
  <rect width="1440" height="28" fill="#0a0c12"/>
  <text x="720" y="18" class="mono" font-size="10" fill="#3a5060" text-anchor="middle" letter-spacing="2">UNCLASSIFIED · IRONFORGE MDMP SIMULATION · TRAINING AID ONLY · NOT FOR OPERATIONAL USE · UNCLASSIFIED</text>

  <!-- system header -->
  <rect y="28" width="1440" height="44" fill="#080b11"/>
  <rect y="72" width="1440" height="1" fill="#171f2b"/>
  <text x="20" y="56" class="mono" font-size="18" fill="#c8a84b" letter-spacing="4" font-weight="700">IRONFORGE</text>
  <text x="162" y="52" class="ui" font-size="10" fill="#3a5060" letter-spacing="1">MILITARY DECISION MAKING PROCESS</text>
  <circle cx="1400" cy="50" r="4" fill="#1acd6e"/>
  <text x="1412" y="54" class="mono" font-size="10" fill="#1acd6e" text-anchor="end" letter-spacing="1">ONLINE</text>

  <!-- sidebar -->
  <rect x="0" y="72" width="288" height="828" fill="#080b11"/>
  <rect x="288" y="72" width="1" height="828" fill="#171f2b"/>

  <text x="16" y="104" class="ui" font-size="9" fill="#8099b0" font-weight="700" letter-spacing="2">SCENARIO</text>
  <rect x="16" y="112" width="256" height="32" fill="#0c1118" stroke="#1f2d3e" stroke-width="1"/>
  <text x="28" y="132" class="ui" font-size="12" fill="#ddeeff">Brigade Defense — Peer Threat</text>
  <rect x="16" y="150" width="256" height="22" fill="#07090f" stroke="#171f2b" stroke-width="1"/>
  <text x="28" y="165" class="ui" font-size="10" fill="#8099b0">2d BCT · Peer mechanized BTG · 18-hr</text>

  <rect x="16" y="182" width="256" height="30" fill="#0a0f08" stroke="#c8a84b" stroke-width="1"/>
  <text x="144" y="201" class="mono" font-size="11" fill="#c8a84b" text-anchor="middle" letter-spacing="2">EXECUTE MDMP</text>

  <rect x="0" y="222" width="288" height="1" fill="#171f2b"/>
  <text x="16" y="244" class="ui" font-size="9" fill="#8099b0" font-weight="700" letter-spacing="2">MDMP STEPS</text>

  <!-- all steps done -->
  <text x="16" y="268" class="mono" font-size="11" fill="#1acd6e">01</text>
  <text x="40" y="268" class="ui" font-size="11" fill="#3a5060">Receipt of Mission</text>
  <text x="272" y="268" class="mono" font-size="9" fill="#1acd6e" text-anchor="end">DONE</text>
  <text x="16" y="290" class="mono" font-size="11" fill="#1acd6e">02</text>
  <text x="40" y="290" class="ui" font-size="11" fill="#3a5060">Mission Analysis</text>
  <text x="272" y="290" class="mono" font-size="9" fill="#1acd6e" text-anchor="end">DONE</text>
  <text x="16" y="312" class="mono" font-size="11" fill="#1acd6e">03</text>
  <text x="40" y="312" class="ui" font-size="11" fill="#3a5060">COA Development</text>
  <text x="272" y="312" class="mono" font-size="9" fill="#1acd6e" text-anchor="end">DONE</text>
  <text x="16" y="334" class="mono" font-size="11" fill="#1acd6e">04</text>
  <text x="40" y="334" class="ui" font-size="11" fill="#3a5060">COA Analysis</text>
  <text x="272" y="334" class="mono" font-size="9" fill="#1acd6e" text-anchor="end">DONE</text>
  <text x="16" y="356" class="mono" font-size="11" fill="#1acd6e">05</text>
  <text x="40" y="356" class="ui" font-size="11" fill="#3a5060">COA Comparison</text>
  <text x="272" y="356" class="mono" font-size="9" fill="#1acd6e" text-anchor="end">DONE</text>
  <text x="16" y="378" class="mono" font-size="11" fill="#1acd6e">06</text>
  <text x="40" y="378" class="ui" font-size="11" fill="#3a5060">COA Approval</text>
  <text x="272" y="378" class="mono" font-size="9" fill="#1acd6e" text-anchor="end">DONE</text>
  <text x="16" y="400" class="mono" font-size="11" fill="#1acd6e">07</text>
  <text x="40" y="400" class="ui" font-size="11" fill="#3a5060">Orders Production</text>
  <text x="272" y="400" class="mono" font-size="9" fill="#1acd6e" text-anchor="end">DONE</text>

  <rect x="0" y="416" width="288" height="1" fill="#171f2b"/>
  <text x="16" y="438" class="ui" font-size="9" fill="#8099b0" font-weight="700" letter-spacing="2">DOCTRINE</text>
  <text x="16" y="458" class="mono" font-size="11" fill="#b4c8d8">FM 6-0</text>     <text x="272" y="458" class="ui" font-size="10" fill="#3a5060" text-anchor="end">MDMP</text>
  <text x="16" y="476" class="mono" font-size="11" fill="#b4c8d8">FM 2-01.3</text>  <text x="272" y="476" class="ui" font-size="10" fill="#3a5060" text-anchor="end">IPB</text>
  <text x="16" y="494" class="mono" font-size="11" fill="#b4c8d8">FM 3-60</text>    <text x="272" y="494" class="ui" font-size="10" fill="#3a5060" text-anchor="end">Targeting</text>
  <text x="16" y="512" class="mono" font-size="11" fill="#b4c8d8">FM 3-09</text>    <text x="272" y="512" class="ui" font-size="10" fill="#3a5060" text-anchor="end">Fire Support</text>
  <text x="16" y="530" class="mono" font-size="11" fill="#b4c8d8">ADRP 5-0</text>  <text x="272" y="530" class="ui" font-size="10" fill="#3a5060" text-anchor="end">Ops Process</text>
  <text x="16" y="548" class="mono" font-size="11" fill="#b4c8d8">JP 3-60</text>    <text x="272" y="548" class="ui" font-size="10" fill="#3a5060" text-anchor="end">Joint Targeting</text>

  <rect x="0" y="856" width="288" height="1" fill="#171f2b"/>
  <text x="16" y="874" class="mono" font-size="9" fill="#1f2d3e" letter-spacing="1">UNCLASSIFIED // TRAINING AID</text>
  <text x="16" y="888" class="mono" font-size="9" fill="#1f2d3e" letter-spacing="1">ALL REFERENCES PUBLICLY AVAILABLE</text>

  <!-- tab bar -->
  <rect x="288" y="72" width="1152" height="40" fill="#07090f"/>
  <rect x="288" y="112" width="1152" height="1" fill="#171f2b"/>
  <text x="361" y="97" class="ui" font-size="12" fill="#3a5060" text-anchor="middle">Mission Analysis</text>
  <!-- active tab: COA -->
  <text x="470" y="97" class="ui" font-size="12" fill="#ddeeff" text-anchor="middle">Courses of Action</text>
  <rect x="405" y="110" width="130" height="2" fill="#c8a84b"/>
  <text x="610" y="97" class="ui" font-size="12" fill="#3a5060" text-anchor="middle">Recommendation</text>
  <text x="720" y="97" class="ui" font-size="12" fill="#3a5060" text-anchor="middle">OPORD</text>
  <text x="820" y="97" class="ui" font-size="12" fill="#3a5060" text-anchor="middle">Fires &amp; Targeting</text>
  <!-- run ID -->
  <text x="1420" y="97" class="mono" font-size="10" fill="#3a5060" text-anchor="end">RUN A14195E0</text>
  <circle cx="1310" cy="92" r="4" fill="#1acd6e"/>
  <text x="1322" y="97" class="mono" font-size="10" fill="#1acd6e" letter-spacing="1">COMPLETE</text>

  <!-- ── COA SECTION CONTENT ── -->
  <!-- COA cards: 3 columns -->
  <!-- COA 1 header -->
  <rect x="308" y="124" width="358" height="40" fill="#0c1118" stroke="#1f2d3e" stroke-width="1"/>
  <text x="320" y="140" class="mono" font-size="9" fill="#4a8fff" letter-spacing="2">COA-1</text>
  <text x="320" y="156" class="ui" font-size="13" fill="#ddeeff" font-weight="600">Forward Defense</text>
  <rect x="608" y="124" width="58" height="18" fill="none" stroke="rgba(26,205,110,0.3)" stroke-width="1"/>
  <text x="637" y="136" class="mono" font-size="9" fill="#1acd6e" text-anchor="middle">VIABLE</text>

  <!-- COA 1 body -->
  <rect x="308" y="164" width="358" height="280" fill="#07090f" stroke="#171f2b" stroke-width="1"/>
  <text x="320" y="184" class="ui" font-size="9" fill="#8099b0" font-weight="700" letter-spacing="2">CONCEPT</text>
  <text x="320" y="202" class="ui" font-size="11" fill="#b4c8d8">Defend forward on Phase Line IRON.</text>
  <text x="320" y="219" class="ui" font-size="11" fill="#b4c8d8">Three IN BNs on-line, armour in depth.</text>
  <text x="320" y="236" class="ui" font-size="11" fill="#b4c8d8">Artillery in general support. Accept risk</text>
  <text x="320" y="253" class="ui" font-size="11" fill="#b4c8d8">on flanks; mass combat power at FEBA.</text>

  <text x="320" y="282" class="ui" font-size="9" fill="#8099b0" font-weight="700" letter-spacing="2">WARGAME RESULTS</text>
  <text x="320" y="300" class="ui" font-size="11" fill="#b4c8d8">Friendly: 18% strength attrition</text>
  <text x="320" y="317" class="ui" font-size="11" fill="#b4c8d8">Enemy: 34% strength attrition</text>
  <text x="320" y="334" class="ui" font-size="11" fill="#b4c8d8">Civilian: 2 incidents possible</text>

  <text x="320" y="363" class="ui" font-size="9" fill="#8099b0" font-weight="700" letter-spacing="2">CRITERIA SCORES</text>
  <!-- score bars -->
  <text x="320" y="383" class="ui" font-size="10" fill="#8099b0">Flexibility</text>
  <rect x="390" y="372" width="60" height="10" fill="rgba(74,143,255,0.15)" stroke="#1e3a5f" stroke-width="1"/>
  <rect x="390" y="372" width="36" height="10" fill="#4a8fff"/>
  <text x="457" y="382" class="mono" font-size="10" fill="#4a8fff">3 / 5</text>
  <text x="320" y="401" class="ui" font-size="10" fill="#8099b0">Simplicity</text>
  <rect x="390" y="390" width="60" height="10" fill="rgba(74,143,255,0.15)" stroke="#1e3a5f" stroke-width="1"/>
  <rect x="390" y="390" width="48" height="10" fill="#4a8fff"/>
  <text x="457" y="400" class="mono" font-size="10" fill="#4a8fff">4 / 5</text>
  <text x="320" y="419" class="ui" font-size="10" fill="#8099b0">Mass</text>
  <rect x="390" y="408" width="60" height="10" fill="rgba(74,143,255,0.15)" stroke="#1e3a5f" stroke-width="1"/>
  <rect x="390" y="408" width="48" height="10" fill="#4a8fff"/>
  <text x="457" y="418" class="mono" font-size="10" fill="#4a8fff">4 / 5</text>
  <text x="320" y="437" class="ui" font-size="10" fill="#8099b0">Risk</text>
  <rect x="390" y="426" width="60" height="10" fill="rgba(74,143,255,0.15)" stroke="#1e3a5f" stroke-width="1"/>
  <rect x="390" y="426" width="30" height="10" fill="#4a8fff"/>
  <text x="457" y="436" class="mono" font-size="10" fill="#4a8fff">2.5/5</text>

  <!-- COA 2 header (RECOMMENDED) -->
  <rect x="674" y="124" width="358" height="40" fill="#0c1118" stroke="#c8a84b" stroke-width="1"/>
  <text x="686" y="140" class="mono" font-size="9" fill="#c8a84b" letter-spacing="2">COA-2</text>
  <text x="686" y="156" class="ui" font-size="13" fill="#ddeeff" font-weight="600">Defense in Depth</text>
  <rect x="958" y="124" width="74" height="18" fill="rgba(200,168,75,0.1)" stroke="rgba(200,168,75,0.4)" stroke-width="1"/>
  <text x="995" y="136" class="mono" font-size="9" fill="#c8a84b" text-anchor="middle">RECOMMENDED</text>

  <!-- COA 2 body -->
  <rect x="674" y="164" width="358" height="280" fill="#07090f" stroke="#1f2d3e" stroke-width="1"/>
  <text x="686" y="184" class="ui" font-size="9" fill="#8099b0" font-weight="700" letter-spacing="2">CONCEPT</text>
  <text x="686" y="202" class="ui" font-size="11" fill="#b4c8d8">Two IN BNs forward, one in depth as</text>
  <text x="686" y="219" class="ui" font-size="11" fill="#b4c8d8">counterattack force. Canalise enemy to</text>
  <text x="686" y="236" class="ui" font-size="11" fill="#b4c8d8">engagement areas. Obstacle plan tied to</text>
  <text x="686" y="253" class="ui" font-size="11" fill="#b4c8d8">fires. BFSB forward for early warning.</text>

  <text x="686" y="282" class="ui" font-size="9" fill="#8099b0" font-weight="700" letter-spacing="2">WARGAME RESULTS</text>
  <text x="686" y="300" class="ui" font-size="11" fill="#b4c8d8">Friendly: 12% strength attrition</text>
  <text x="686" y="317" class="ui" font-size="11" fill="#b4c8d8">Enemy: 41% strength attrition</text>
  <text x="686" y="334" class="ui" font-size="11" fill="#b4c8d8">Civilian: 0 incidents projected</text>

  <text x="686" y="363" class="ui" font-size="9" fill="#8099b0" font-weight="700" letter-spacing="2">CRITERIA SCORES</text>
  <text x="686" y="383" class="ui" font-size="10" fill="#8099b0">Flexibility</text>
  <rect x="756" y="372" width="60" height="10" fill="rgba(200,168,75,0.15)" stroke="#4a3a10" stroke-width="1"/>
  <rect x="756" y="372" width="54" height="10" fill="#c8a84b"/>
  <text x="823" y="382" class="mono" font-size="10" fill="#c8a84b">4.5/5</text>
  <text x="686" y="401" class="ui" font-size="10" fill="#8099b0">Simplicity</text>
  <rect x="756" y="390" width="60" height="10" fill="rgba(200,168,75,0.15)" stroke="#4a3a10" stroke-width="1"/>
  <rect x="756" y="390" width="42" height="10" fill="#c8a84b"/>
  <text x="823" y="400" class="mono" font-size="10" fill="#c8a84b">3.5/5</text>
  <text x="686" y="419" class="ui" font-size="10" fill="#8099b0">Mass</text>
  <rect x="756" y="408" width="60" height="10" fill="rgba(200,168,75,0.15)" stroke="#4a3a10" stroke-width="1"/>
  <rect x="756" y="408" width="48" height="10" fill="#c8a84b"/>
  <text x="823" y="418" class="mono" font-size="10" fill="#c8a84b">4 / 5</text>
  <text x="686" y="437" class="ui" font-size="10" fill="#8099b0">Risk</text>
  <rect x="756" y="426" width="60" height="10" fill="rgba(200,168,75,0.15)" stroke="#4a3a10" stroke-width="1"/>
  <rect x="756" y="426" width="54" height="10" fill="#c8a84b"/>
  <text x="823" y="436" class="mono" font-size="10" fill="#c8a84b">4.5/5</text>

  <!-- COA 3 header -->
  <rect x="1040" y="124" width="380" height="40" fill="#0c1118" stroke="#1f2d3e" stroke-width="1"/>
  <text x="1052" y="140" class="mono" font-size="9" fill="#4a8fff" letter-spacing="2">COA-3</text>
  <text x="1052" y="156" class="ui" font-size="13" fill="#ddeeff" font-weight="600">Mobile Defense</text>
  <rect x="1352" y="124" width="68" height="18" fill="none" stroke="rgba(26,205,110,0.3)" stroke-width="1"/>
  <text x="1386" y="136" class="mono" font-size="9" fill="#1acd6e" text-anchor="middle">VIABLE</text>

  <!-- COA 3 body -->
  <rect x="1040" y="164" width="380" height="280" fill="#07090f" stroke="#171f2b" stroke-width="1"/>
  <text x="1052" y="184" class="ui" font-size="9" fill="#8099b0" font-weight="700" letter-spacing="2">CONCEPT</text>
  <text x="1052" y="202" class="ui" font-size="11" fill="#b4c8d8">One BN fixing force; two BN strike</text>
  <text x="1052" y="219" class="ui" font-size="11" fill="#b4c8d8">force. Draw enemy into kill sack then</text>
  <text x="1052" y="236" class="ui" font-size="11" fill="#b4c8d8">destroy with armored counterattack.</text>
  <text x="1052" y="253" class="ui" font-size="11" fill="#b4c8d8">High risk / high payoff approach.</text>

  <text x="1052" y="282" class="ui" font-size="9" fill="#8099b0" font-weight="700" letter-spacing="2">WARGAME RESULTS</text>
  <text x="1052" y="300" class="ui" font-size="11" fill="#b4c8d8">Friendly: 22% strength attrition</text>
  <text x="1052" y="317" class="ui" font-size="11" fill="#b4c8d8">Enemy: 52% strength attrition</text>
  <text x="1052" y="334" class="ui" font-size="11" fill="#b4c8d8">Civilian: 4 incidents possible</text>

  <text x="1052" y="363" class="ui" font-size="9" fill="#8099b0" font-weight="700" letter-spacing="2">CRITERIA SCORES</text>
  <text x="1052" y="383" class="ui" font-size="10" fill="#8099b0">Flexibility</text>
  <rect x="1122" y="372" width="60" height="10" fill="rgba(74,143,255,0.15)" stroke="#1e3a5f" stroke-width="1"/>
  <rect x="1122" y="372" width="48" height="10" fill="#4a8fff"/>
  <text x="1189" y="382" class="mono" font-size="10" fill="#4a8fff">4 / 5</text>
  <text x="1052" y="401" class="ui" font-size="10" fill="#8099b0">Simplicity</text>
  <rect x="1122" y="390" width="60" height="10" fill="rgba(74,143,255,0.15)" stroke="#1e3a5f" stroke-width="1"/>
  <rect x="1122" y="390" width="24" height="10" fill="#4a8fff"/>
  <text x="1189" y="400" class="mono" font-size="10" fill="#4a8fff">2 / 5</text>
  <text x="1052" y="419" class="ui" font-size="10" fill="#8099b0">Mass</text>
  <rect x="1122" y="408" width="60" height="10" fill="rgba(74,143,255,0.15)" stroke="#1e3a5f" stroke-width="1"/>
  <rect x="1122" y="408" width="60" height="10" fill="#4a8fff"/>
  <text x="1189" y="418" class="mono" font-size="10" fill="#4a8fff">5 / 5</text>
  <text x="1052" y="437" class="ui" font-size="10" fill="#8099b0">Risk</text>
  <rect x="1122" y="426" width="60" height="10" fill="rgba(74,143,255,0.15)" stroke="#1e3a5f" stroke-width="1"/>
  <rect x="1122" y="426" width="18" height="10" fill="#4a8fff"/>
  <text x="1189" y="436" class="mono" font-size="10" fill="#4a8fff">1.5/5</text>

  <!-- Decision matrix -->
  <text x="308" y="472" class="ui" font-size="9" fill="#8099b0" font-weight="700" letter-spacing="2">COA COMPARISON MATRIX</text>
  <text x="1420" y="472" class="mono" font-size="9" fill="#2a3a4a" text-anchor="end">FM 6-0 §9-105</text>

  <!-- table header -->
  <rect x="308" y="480" width="1112" height="26" fill="#0c1118" stroke="#1f2d3e" stroke-width="1"/>
  <text x="320" y="497" class="ui" font-size="10" fill="#8099b0" font-weight="600">Evaluation Criterion</text>
  <text x="680" y="497" class="ui" font-size="10" fill="#8099b0" text-anchor="middle" font-weight="600">COA-1  Forward Def</text>
  <text x="900" y="497" class="ui" font-size="10" fill="#c8a84b" text-anchor="middle" font-weight="600">COA-2  Def in Depth ★</text>
  <text x="1200" y="497" class="ui" font-size="10" fill="#8099b0" text-anchor="middle" font-weight="600">COA-3  Mobile Def</text>

  <!-- rows -->
  <rect x="308" y="506" width="1112" height="22" fill="#07090f" stroke="#171f2b" stroke-width="1"/>
  <text x="320" y="521" class="ui" font-size="11" fill="#b4c8d8">Flexibility</text>
  <text x="680" y="521" class="mono" font-size="11" fill="#b4c8d8" text-anchor="middle">3</text>
  <text x="900" y="521" class="mono" font-size="11" fill="#c8a84b" text-anchor="middle">4.5</text>
  <text x="1200" y="521" class="mono" font-size="11" fill="#b4c8d8" text-anchor="middle">4</text>

  <rect x="308" y="528" width="1112" height="22" fill="#0c1118" stroke="#171f2b" stroke-width="1"/>
  <text x="320" y="543" class="ui" font-size="11" fill="#b4c8d8">Simplicity</text>
  <text x="680" y="543" class="mono" font-size="11" fill="#b4c8d8" text-anchor="middle">4</text>
  <text x="900" y="543" class="mono" font-size="11" fill="#c8a84b" text-anchor="middle">3.5</text>
  <text x="1200" y="543" class="mono" font-size="11" fill="#b4c8d8" text-anchor="middle">2</text>

  <rect x="308" y="550" width="1112" height="22" fill="#07090f" stroke="#171f2b" stroke-width="1"/>
  <text x="320" y="565" class="ui" font-size="11" fill="#b4c8d8">Mass</text>
  <text x="680" y="565" class="mono" font-size="11" fill="#b4c8d8" text-anchor="middle">4</text>
  <text x="900" y="565" class="mono" font-size="11" fill="#c8a84b" text-anchor="middle">4</text>
  <text x="1200" y="565" class="mono" font-size="11" fill="#b4c8d8" text-anchor="middle">5</text>

  <rect x="308" y="572" width="1112" height="22" fill="#0c1118" stroke="#171f2b" stroke-width="1"/>
  <text x="320" y="587" class="ui" font-size="11" fill="#b4c8d8">Risk to Force</text>
  <text x="680" y="587" class="mono" font-size="11" fill="#b4c8d8" text-anchor="middle">2.5</text>
  <text x="900" y="587" class="mono" font-size="11" fill="#c8a84b" text-anchor="middle">4.5</text>
  <text x="1200" y="587" class="mono" font-size="11" fill="#b4c8d8" text-anchor="middle">1.5</text>

  <rect x="308" y="594" width="1112" height="22" fill="#07090f" stroke="#171f2b" stroke-width="1"/>
  <text x="320" y="609" class="ui" font-size="11" fill="#b4c8d8">Risk to Mission</text>
  <text x="680" y="609" class="mono" font-size="11" fill="#b4c8d8" text-anchor="middle">3</text>
  <text x="900" y="609" class="mono" font-size="11" fill="#c8a84b" text-anchor="middle">4</text>
  <text x="1200" y="609" class="mono" font-size="11" fill="#b4c8d8" text-anchor="middle">2.5</text>

  <!-- totals row -->
  <rect x="308" y="616" width="1112" height="24" fill="#0c1118" stroke="#1f2d3e" stroke-width="1"/>
  <text x="320" y="632" class="ui" font-size="11" fill="#ddeeff" font-weight="700">TOTAL</text>
  <text x="680" y="632" class="mono" font-size="12" fill="#ddeeff" text-anchor="middle">16.5</text>
  <text x="900" y="632" class="mono" font-size="12" fill="#c8a84b" text-anchor="middle" font-weight="700">20.5</text>
  <text x="1200" y="632" class="mono" font-size="12" fill="#ddeeff" text-anchor="middle">15</text>

  <!-- recommendation note -->
  <rect x="308" y="650" width="1112" height="50" fill="rgba(200,168,75,0.04)" stroke="rgba(200,168,75,0.15)" stroke-width="1"/>
  <text x="320" y="668" class="ui" font-size="9" fill="#c8a84b" font-weight="700" letter-spacing="2">COMMANDER'S RECOMMENDATION</text>
  <text x="320" y="685" class="ui" font-size="12" fill="#8099b0">COA-2 Defense in Depth recommended. Superior flexibility and risk management. Obstacle / fires integration</text>
  <text x="320" y="700" class="ui" font-size="12" fill="#8099b0">enables sustained defense. Counterattack force preserved. Projected civilian incident rate: zero.</text>

  <!-- classification banner bottom -->
  <rect y="872" width="1440" height="28" fill="#0a0c12"/>
  <text x="720" y="890" class="mono" font-size="10" fill="#3a5060" text-anchor="middle" letter-spacing="2">UNCLASSIFIED · IRONFORGE MDMP SIMULATION · TRAINING AID ONLY · NOT FOR OPERATIONAL USE · UNCLASSIFIED</text>
</svg>
