<svg width="1440" height="900" xmlns="http://www.w3.org/2000/svg">
  <defs><style>text { font-family: 'Courier New', 'Liberation Mono', monospace; }</style></defs>

  <!-- BACKGROUND -->
  <rect width="1440" height="900" fill="#080d18"/>

  <!-- CLASSIFICATION TOP -->
  <rect y="0" width="1440" height="18" fill="#004d00"/>
  <text x="720" y="13" text-anchor="middle" font-size="9" fill="#00ee00" font-weight="bold" letter-spacing="3">&#x258C; UNCLASSIFIED &#x258C; IRONFORGE MDMP SIMULATION &#x2014; TRAINING AID ONLY &#x258C; NOT FOR OPERATIONAL USE &#x258C; UNCLASSIFIED &#x258C;</text>

  <!-- SYSTEM HEADER -->
  <rect y="18" width="1440" height="40" fill="#0a0f1c"/>
  <rect y="57" width="1440" height="1" fill="#1e2d3d"/>
  <text x="16" y="44" font-size="15" fill="#c8a84b" font-weight="bold" letter-spacing="5">&#x25C8; IRONFORGE</text>
  <text x="148" y="44" font-size="10" fill="#4a6680" letter-spacing="3">AI-POWERED MDMP ENGINE</text>
  <rect x="310" y="27" width="1" height="22" fill="#1e2d3d"/>
  <text x="322" y="44" font-size="10" fill="#2d4a6a">FM 6-0 &#xB7; FM 2-01.3 &#xB7; FM 3-60 &#xB7; FM 3-09 &#xB7; JP 3-0 &#xB7; JP 3-60</text>
  <circle cx="1158" cy="38" r="4" fill="#16b960"/>
  <text x="1168" y="42" font-size="10" fill="#16b960" letter-spacing="2">ONLINE</text>
  <rect x="1216" y="27" width="1" height="22" fill="#1e2d3d"/>
  <circle cx="1228" cy="38" r="4" fill="#c8a84b"/>
  <text x="1238" y="42" font-size="10" fill="#c8a84b" letter-spacing="1">AI ENGINE READY</text>
  <rect x="1350" y="27" width="1" height="22" fill="#1e2d3d"/>
  <text x="1362" y="42" font-size="10" fill="#2d4a6a">v1.0.0</text>

  <!-- LEFT SIDEBAR -->
  <rect x="0" y="58" width="210" height="842" fill="#090e1a"/>
  <rect x="209" y="58" width="1" height="842" fill="#1e2d3d"/>
  <rect x="8" y="66" width="194" height="64" fill="#0d1420" stroke="#1e2d3d" stroke-width="1"/>
  <text x="16" y="82" font-size="9" fill="#c8a84b" letter-spacing="3" font-weight="bold">ACTIVE SCENARIO</text>
  <rect x="16" y="86" width="178" height="1" fill="#7a6420" opacity="0.4"/>
  <text x="16" y="101" font-size="9" fill="#c8dae8">Brigade Defense &#x2014; Peer</text>
  <text x="16" y="115" font-size="8" fill="#4a6680">2d BCT // DELIBERATE</text>
  <circle cx="18" cy="124" r="3" fill="#16b960"/>
  <text x="26" y="128" font-size="8" fill="#16b960">COMPLETE // RUN: 3F8A21C4</text>

  <rect x="8" y="138" width="194" height="210" fill="#0d1420" stroke="#1e2d3d" stroke-width="1"/>
  <text x="16" y="154" font-size="8" fill="#c8a84b" letter-spacing="3" font-weight="bold">MDMP PIPELINE</text>
  <rect x="16" y="158" width="178" height="1" fill="#7a6420" opacity="0.4"/>
  <text x="20" y="173" font-size="9" fill="#16b960">&#x25C8;</text><text x="32" y="173" font-size="9" fill="#16b960">01. Receipt</text><text x="156" y="173" font-size="7" fill="#16b960">DONE</text>
  <text x="20" y="188" font-size="9" fill="#16b960">&#x25C8;</text><text x="32" y="188" font-size="9" fill="#16b960">02. Analysis</text><text x="156" y="188" font-size="7" fill="#16b960">DONE</text>
  <text x="20" y="203" font-size="9" fill="#16b960">&#x25C8;</text><text x="32" y="203" font-size="9" fill="#16b960">03. COA Dev</text><text x="156" y="203" font-size="7" fill="#16b960">DONE</text>
  <text x="20" y="218" font-size="9" fill="#16b960">&#x25C8;</text><text x="32" y="218" font-size="9" fill="#16b960">04. Analysis</text><text x="156" y="218" font-size="7" fill="#16b960">DONE</text>
  <text x="20" y="233" font-size="9" fill="#16b960">&#x25C8;</text><text x="32" y="233" font-size="9" fill="#16b960">05. Comparison</text><text x="156" y="233" font-size="7" fill="#16b960">DONE</text>
  <text x="20" y="248" font-size="9" fill="#16b960">&#x25C8;</text><text x="32" y="248" font-size="9" fill="#16b960">06. Approval</text><text x="156" y="248" font-size="7" fill="#16b960">DONE</text>
  <text x="20" y="263" font-size="9" fill="#16b960">&#x25C8;</text><text x="32" y="263" font-size="9" fill="#16b960">07. Orders</text><text x="156" y="263" font-size="7" fill="#16b960">DONE</text>
  <rect x="16" y="272" width="178" height="1" fill="#1e2d3d"/>
  <text x="105" y="286" text-anchor="middle" font-size="8" fill="#16b960">&#x25C8; COMPLETE &#x25C8;</text>
  <text x="105" y="298" text-anchor="middle" font-size="7" fill="#2d4a6a">Rec: COA-B // Score: 3.87</text>
  <text x="105" y="310" text-anchor="middle" font-size="7" fill="#2d4a6a">00:48 // 042248APR26</text>

  <!-- Fires quick stats -->
  <rect x="8" y="356" width="194" height="180" fill="#0d1420" stroke="#1e2d3d" stroke-width="1"/>
  <text x="16" y="372" font-size="8" fill="#c8a84b" letter-spacing="3" font-weight="bold">FIRES STATUS</text>
  <rect x="16" y="376" width="178" height="1" fill="#7a6420" opacity="0.4"/>
  <text x="16" y="392" font-size="8" fill="#4a6680">HPTL:</text><text x="60" y="392" font-size="8" fill="#ef4444">5 targets nominated</text>
  <text x="16" y="407" font-size="8" fill="#4a6680">HPT tracked:</text><text x="100" y="407" font-size="8" fill="#c8a84b">2</text>
  <text x="16" y="422" font-size="8" fill="#4a6680">HPT targeted:</text><text x="108" y="422" font-size="8" fill="#16b960">1</text>
  <text x="16" y="437" font-size="8" fill="#4a6680">HVT located:</text><text x="100" y="437" font-size="8" fill="#3b82f6">3</text>
  <rect x="16" y="446" width="178" height="1" fill="#1e2d3d"/>
  <text x="16" y="461" font-size="8" fill="#4a6680">FA BN (DS):</text><text x="92" y="461" font-size="8" fill="#16b960">READY</text>
  <text x="16" y="476" font-size="8" fill="#4a6680">HIMARS PLT:</text><text x="92" y="476" font-size="8" fill="#16b960">READY</text>
  <text x="16" y="491" font-size="8" fill="#4a6680">AFATDS:</text><text x="72" y="491" font-size="8" fill="#16b960">ONLINE</text>
  <text x="16" y="506" font-size="8" fill="#4a6680">CFL:</text><text x="42" y="506" font-size="8" fill="#c8a84b">PL DRAGON ACTIVE</text>
  <text x="16" y="521" font-size="8" fill="#4a6680">FSCL:</text><text x="52" y="521" font-size="8" fill="#c8a84b">PL PHANTOM ACTIVE</text>
  <text x="16" y="528" font-size="7" fill="#2d4a6a">FM 3-09 Ch.5 // FM 3-60 &#xA7;2-1</text>

  <!-- ── SECTION TAB NAV ─────────────────────────────── -->
  <rect x="210" y="58" width="1230" height="30" fill="#090e1a"/>
  <rect x="210" y="87" width="1230" height="1" fill="#1e2d3d"/>
  <text x="282" y="78" font-size="10" fill="#4a6680">MISSION ANALYSIS</text>
  <text x="440" y="78" font-size="10" fill="#4a6680">COURSES OF ACTION</text>
  <text x="606" y="78" font-size="10" fill="#4a6680">RECOMMENDATION</text>
  <text x="758" y="78" font-size="10" fill="#4a6680">OPORD</text>
  <rect x="210" y="86" width="50" height="2" fill="#c8a84b"/>
  <text x="234" y="78" text-anchor="middle" font-size="10" fill="#c8a84b" letter-spacing="1">FIRES</text>
  <circle cx="1350" cy="74" r="3" fill="#16b960"/>
  <text x="1358" y="78" font-size="9" fill="#16b960" letter-spacing="2">COMPLETE</text>

  <!-- ── FIRES MAIN PANEL ─────────────────────────────── -->
  <rect x="210" y="88" width="1230" height="792" fill="#080d18"/>

  <!-- Fires panel header -->
  <rect x="218" y="96" width="1214" height="36" fill="#0d1420" stroke="#1e2d3d" stroke-width="1"/>
  <text x="232" y="114" font-size="9" fill="#c8a84b" letter-spacing="4" font-weight="bold">FIRES INTEGRATION // TARGETING</text>
  <text x="460" y="114" font-size="9" fill="#2d4a6a">FM 3-09 &#xB7; FM 3-60 &#xB7; JP 3-60</text>
  <text x="1380" y="114" text-anchor="end" font-size="9" fill="#4a6680">F2T2EA KILL CHAIN TRACKER</text>

  <!-- F2T2EA tracker -->
  <rect x="218" y="140" width="1214" height="28" fill="#0a1018" stroke="#1e2d3d" stroke-width="1"/>
  <text x="232" y="157" font-size="8" fill="#4a6680" letter-spacing="2">F2T2EA:</text>
  <rect x="288" y="146" width="48" height="16" fill="rgba(22,185,96,0.1)" stroke="#0a3020" stroke-width="1"/>
  <text x="312" y="158" text-anchor="middle" font-size="8" fill="#16b960" letter-spacing="1">FIND</text>
  <rect x="340" y="146" width="48" height="16" fill="rgba(22,185,96,0.1)" stroke="#0a3020" stroke-width="1"/>
  <text x="364" y="158" text-anchor="middle" font-size="8" fill="#16b960" letter-spacing="1">FIX</text>
  <rect x="392" y="146" width="52" height="16" fill="rgba(200,168,75,0.15)" stroke="#c8a84b" stroke-width="1"/>
  <text x="418" y="158" text-anchor="middle" font-size="8" fill="#c8a84b" letter-spacing="1">TRACK</text>
  <rect x="448" y="146" width="56" height="16" fill="rgba(200,168,75,0.15)" stroke="#c8a84b" stroke-width="1"/>
  <text x="476" y="158" text-anchor="middle" font-size="8" fill="#c8a84b" letter-spacing="1">TARGET</text>
  <rect x="508" y="146" width="56" height="16" fill="transparent" stroke="#1e2d3d" stroke-width="1"/>
  <text x="536" y="158" text-anchor="middle" font-size="8" fill="#4a6680" letter-spacing="1">ENGAGE</text>
  <rect x="568" y="146" width="56" height="16" fill="transparent" stroke="#1e2d3d" stroke-width="1"/>
  <text x="596" y="158" text-anchor="middle" font-size="8" fill="#4a6680" letter-spacing="1">ASSESS</text>
  <text x="640" y="157" font-size="8" fill="#2d4a6a">FM 3-60 &#xA7;2-1 (November 2023)</text>
  <text x="1350" y="157" font-size="8" fill="#2d4a6a">AFATDS: ONLINE</text>

  <!-- Tab nav -->
  <rect x="218" y="176" width="1214" height="28" fill="#090e1a" stroke="#1e2d3d" stroke-width="1"/>
  <rect x="218" y="202" width="1214" height="1" fill="#1e2d3d"/>
  <rect x="218" y="202" width="82" height="2" fill="#c8a84b"/>
  <text x="259" y="194" text-anchor="middle" font-size="10" fill="#c8a84b">HPTL</text>
  <text x="330" y="194" font-size="10" fill="#4a6680">AGM</text>
  <text x="406" y="194" font-size="10" fill="#4a6680">FSCM</text>
  <text x="498" y="194" font-size="10" fill="#4a6680">NOMINATE</text>

  <!-- ── HPTL TABLE ─────────────────────────────── -->
  <rect x="218" y="210" width="1214" height="28" fill="#0a1018" stroke="#1e2d3d" stroke-width="1"/>
  <text x="232" y="224" font-size="8" fill="#c8a84b" letter-spacing="3" font-weight="bold">HIGH PAYOFF TARGET LIST</text>
  <text x="420" y="224" font-size="8" fill="#2d4a6a">FM 3-60 &#xA7;4-1 (The Targeting Process)</text>
  <text x="1380" y="224" text-anchor="end" font-size="8" fill="#4a6680">5 TARGETS NOMINATED</text>

  <!-- Table header -->
  <rect x="218" y="238" width="1214" height="22" fill="#0a1018" stroke="#1e2d3d" stroke-width="1"/>
  <text x="228" y="253" font-size="8" fill="#4a6680" letter-spacing="1">ID</text>
  <text x="280" y="253" font-size="8" fill="#4a6680" letter-spacing="1">TARGET NAME</text>
  <text x="460" y="253" font-size="8" fill="#4a6680" letter-spacing="1">TYPE</text>
  <text x="600" y="253" font-size="8" fill="#4a6680" letter-spacing="1">PRIORITY</text>
  <text x="760" y="253" font-size="8" fill="#4a6680" letter-spacing="1">EFFECT</text>
  <text x="870" y="253" font-size="8" fill="#4a6680" letter-spacing="1">MEANS</text>
  <text x="1060" y="253" font-size="8" fill="#4a6680" letter-spacing="1">F2T2EA STATUS</text>

  <!-- Row 1: Enemy AD Radar — TARGETED (highest priority) -->
  <rect x="218" y="260" width="1214" height="28" fill="rgba(239,68,68,0.05)" stroke="#1e2d3d" stroke-width="1"/>
  <text x="228" y="278" font-size="9" fill="#c8a84b">HPT-001</text>
  <text x="280" y="278" font-size="9" fill="#c8dae8" font-weight="bold">Enemy AD Radar // 9S18 Kupol</text>
  <text x="460" y="278" font-size="9" fill="#a0b4c8">Air Defense System</text>
  <rect x="596" y="264" width="120" height="18" fill="rgba(239,68,68,0.15)" stroke="#4a1010" stroke-width="1"/>
  <text x="656" y="277" text-anchor="middle" font-size="8" fill="#ef4444" letter-spacing="1">HIGH PAYOFF TGT</text>
  <text x="760" y="278" font-size="9" fill="#ef7777">Destroy</text>
  <text x="870" y="278" font-size="9" fill="#a0b4c8">HIMARS / ATACMS</text>
  <!-- F2T2EA progress -->
  <rect x="1060" y="266" width="10" height="10" fill="#16b960"/>
  <rect x="1074" y="266" width="10" height="10" fill="#16b960"/>
  <rect x="1088" y="266" width="10" height="10" fill="#16b960"/>
  <rect x="1102" y="266" width="10" height="10" fill="#c8a84b"/>
  <rect x="1116" y="266" width="10" height="10" fill="#1e2d3d"/>
  <rect x="1130" y="266" width="10" height="10" fill="#1e2d3d"/>
  <text x="1150" y="278" font-size="9" fill="#c8a84b" font-weight="bold">TARGET</text>

  <!-- Row 2: Enemy C2 Node — TARGETED -->
  <rect x="218" y="288" width="1214" height="28" fill="#0d1420" stroke="#1e2d3d" stroke-width="1"/>
  <text x="228" y="306" font-size="9" fill="#c8a84b">HPT-002</text>
  <text x="280" y="306" font-size="9" fill="#c8dae8">Enemy BTG TAC CP // Vicinity GRID 38SMB 234 567</text>
  <text x="460" y="306" font-size="9" fill="#a0b4c8">Command and Control</text>
  <rect x="596" y="292" width="120" height="18" fill="rgba(239,68,68,0.15)" stroke="#4a1010" stroke-width="1"/>
  <text x="656" y="305" text-anchor="middle" font-size="8" fill="#ef4444" letter-spacing="1">HIGH PAYOFF TGT</text>
  <text x="760" y="306" font-size="9" fill="#ef7777">Destroy</text>
  <text x="870" y="306" font-size="9" fill="#a0b4c8">HIMARS GMLRS / JDAM</text>
  <rect x="1060" y="294" width="10" height="10" fill="#16b960"/>
  <rect x="1074" y="294" width="10" height="10" fill="#16b960"/>
  <rect x="1088" y="294" width="10" height="10" fill="#16b960"/>
  <rect x="1102" y="294" width="10" height="10" fill="#c8a84b"/>
  <rect x="1116" y="294" width="10" height="10" fill="#1e2d3d"/>
  <rect x="1130" y="294" width="10" height="10" fill="#1e2d3d"/>
  <text x="1150" y="306" font-size="9" fill="#c8a84b" font-weight="bold">TARGET</text>

  <!-- Row 3: Bridge ROUTE HAWK — TRACKED -->
  <rect x="218" y="316" width="1214" height="28" fill="#0d1420" stroke="#1e2d3d" stroke-width="1"/>
  <text x="228" y="334" font-size="9" fill="#c8a84b">HPT-003</text>
  <text x="280" y="334" font-size="9" fill="#c8dae8">Bridge VIC ROUTE HAWK // GRID 38SMB 678 901</text>
  <text x="460" y="334" font-size="9" fill="#a0b4c8">LOC / Infrastructure</text>
  <rect x="596" y="320" width="100" height="18" fill="rgba(245,158,11,0.1)" stroke="#7a4010" stroke-width="1"/>
  <text x="646" y="333" text-anchor="middle" font-size="8" fill="#f59e0b" letter-spacing="1">HIGH VALUE TGT</text>
  <text x="760" y="334" font-size="9" fill="#a0b4c8">Interdict</text>
  <text x="870" y="334" font-size="9" fill="#a0b4c8">M109A7 / MLRS</text>
  <rect x="1060" y="322" width="10" height="10" fill="#16b960"/>
  <rect x="1074" y="322" width="10" height="10" fill="#16b960"/>
  <rect x="1088" y="322" width="10" height="10" fill="#c8a84b"/>
  <rect x="1102" y="322" width="10" height="10" fill="#1e2d3d"/>
  <rect x="1116" y="322" width="10" height="10" fill="#1e2d3d"/>
  <rect x="1130" y="322" width="10" height="10" fill="#1e2d3d"/>
  <text x="1150" y="334" font-size="9" fill="#c8a84b">TRACK</text>

  <!-- Row 4: Enemy Fuel Depot — FIX -->
  <rect x="218" y="344" width="1214" height="28" fill="#0d1420" stroke="#1e2d3d" stroke-width="1"/>
  <text x="228" y="362" font-size="9" fill="#c8a84b">HPT-004</text>
  <text x="280" y="362" font-size="9" fill="#c8dae8">Enemy CSSP / Fuel Point // GRID 38SMB 901 234</text>
  <text x="460" y="362" font-size="9" fill="#a0b4c8">Logistics Node</text>
  <rect x="596" y="348" width="100" height="18" fill="rgba(245,158,11,0.1)" stroke="#7a4010" stroke-width="1"/>
  <text x="646" y="361" text-anchor="middle" font-size="8" fill="#f59e0b" letter-spacing="1">HIGH VALUE TGT</text>
  <text x="760" y="362" font-size="9" fill="#a0b4c8">Destroy</text>
  <text x="870" y="362" font-size="9" fill="#a0b4c8">M109A7 Paladin</text>
  <rect x="1060" y="350" width="10" height="10" fill="#16b960"/>
  <rect x="1074" y="350" width="10" height="10" fill="#16b960"/>
  <rect x="1088" y="350" width="10" height="10" fill="#1e2d3d"/>
  <rect x="1102" y="350" width="10" height="10" fill="#1e2d3d"/>
  <rect x="1116" y="350" width="10" height="10" fill="#1e2d3d"/>
  <rect x="1130" y="350" width="10" height="10" fill="#1e2d3d"/>
  <text x="1150" y="362" font-size="9" fill="#3b82f6">FIX</text>

  <!-- Row 5: Enemy ATGM Platoon — FIND -->
  <rect x="218" y="372" width="1214" height="28" fill="#0d1420" stroke="#1e2d3d" stroke-width="1"/>
  <text x="228" y="390" font-size="9" fill="#c8a84b">TAI-005</text>
  <text x="280" y="390" font-size="9" fill="#c8dae8">Enemy ATGM PLT // Vicin GRID 38SMB 456 789</text>
  <text x="460" y="390" font-size="9" fill="#a0b4c8">Anti-Armor System</text>
  <rect x="596" y="376" width="80" height="18" fill="transparent" stroke="#1e2d3d" stroke-width="1"/>
  <text x="636" y="389" text-anchor="middle" font-size="8" fill="#4a6680" letter-spacing="1">TAI</text>
  <text x="760" y="390" font-size="9" fill="#a0b4c8">Suppress</text>
  <text x="870" y="390" font-size="9" fill="#a0b4c8">M109A7 / AH-64E</text>
  <rect x="1060" y="378" width="10" height="10" fill="#16b960"/>
  <rect x="1074" y="378" width="10" height="10" fill="#1e2d3d"/>
  <rect x="1088" y="378" width="10" height="10" fill="#1e2d3d"/>
  <rect x="1102" y="378" width="10" height="10" fill="#1e2d3d"/>
  <rect x="1116" y="378" width="10" height="10" fill="#1e2d3d"/>
  <rect x="1130" y="378" width="10" height="10" fill="#1e2d3d"/>
  <text x="1150" y="390" font-size="9" fill="#4a6680">FIND</text>

  <!-- ── ATTACK GUIDANCE MATRIX ─────────────────────────────── -->
  <rect x="218" y="410" width="1214" height="28" fill="#0a1018" stroke="#1e2d3d" stroke-width="1"/>
  <text x="232" y="424" font-size="8" fill="#c8a84b" letter-spacing="3" font-weight="bold">ATTACK GUIDANCE MATRIX (AGM)</text>
  <text x="440" y="424" font-size="8" fill="#2d4a6a">FM 3-60 &#xA7;4-12 (November 2023)</text>
  <text x="1380" y="424" text-anchor="end" font-size="8" fill="#4a6680">CDR APPROVED // 042200APR26</text>

  <!-- AGM table header -->
  <rect x="218" y="438" width="1214" height="22" fill="#0a1018" stroke="#1e2d3d" stroke-width="1"/>
  <text x="230" y="453" font-size="8" fill="#4a6680">PRI</text>
  <text x="270" y="453" font-size="8" fill="#4a6680">TARGET TYPE</text>
  <text x="490" y="453" font-size="8" fill="#4a6680">WHEN</text>
  <text x="650" y="453" font-size="8" fill="#4a6680">DESIRED EFFECT</text>
  <text x="810" y="453" font-size="8" fill="#4a6680">MEANS</text>
  <text x="1040" y="453" font-size="8" fill="#4a6680">RESTRICTIONS</text>

  <!-- AGM Row 1 -->
  <rect x="218" y="460" width="1214" height="24" fill="rgba(239,68,68,0.05)" stroke="#1e2d3d" stroke-width="1"/>
  <text x="232" y="476" font-size="9" fill="#c8a84b" font-weight="bold">P1</text>
  <text x="270" y="476" font-size="9" fill="#c8dae8">Air Defense Systems</text>
  <text x="490" y="476" font-size="9" fill="#a0b4c8">On order // H-hour to H+2</text>
  <text x="650" y="476" font-size="9" fill="#ef7777">Destroy / Suppress</text>
  <text x="810" y="476" font-size="9" fill="#a0b4c8">HIMARS ATACMS / Joint Strike</text>
  <text x="1040" y="476" font-size="9" fill="#4a6680">PID required // CEA approved</text>

  <!-- AGM Row 2 -->
  <rect x="218" y="484" width="1214" height="24" fill="#0d1420" stroke="#1e2d3d" stroke-width="1"/>
  <text x="232" y="500" font-size="9" fill="#c8a84b" font-weight="bold">P2</text>
  <text x="270" y="500" font-size="9" fill="#c8dae8">Enemy C2 Nodes</text>
  <text x="490" y="500" font-size="9" fill="#a0b4c8">H-hour to H+4</text>
  <text x="650" y="500" font-size="9" fill="#ef7777">Destroy</text>
  <text x="810" y="500" font-size="9" fill="#a0b4c8">HIMARS GMLRS / JDAM</text>
  <text x="1040" y="500" font-size="9" fill="#4a6680">No fires in NFA TOWN BRAVO</text>

  <!-- AGM Row 3 -->
  <rect x="218" y="508" width="1214" height="24" fill="#0d1420" stroke="#1e2d3d" stroke-width="1"/>
  <text x="232" y="524" font-size="9" fill="#c8a84b" font-weight="bold">P3</text>
  <text x="270" y="524" font-size="9" fill="#c8dae8">Enemy Maneuver Forces</text>
  <text x="490" y="524" font-size="9" fill="#a0b4c8">On contact in EAs</text>
  <text x="650" y="524" font-size="9" fill="#a0b4c8">Suppress / Neutralize</text>
  <text x="810" y="524" font-size="9" fill="#a0b4c8">M109A7 (6-tube volley)</text>
  <text x="1040" y="524" font-size="9" fill="#4a6680">FSCM compliance required</text>

  <!-- AGM Row 4 -->
  <rect x="218" y="532" width="1214" height="24" fill="#0d1420" stroke="#1e2d3d" stroke-width="1"/>
  <text x="232" y="548" font-size="9" fill="#c8a84b" font-weight="bold">P4</text>
  <text x="270" y="548" font-size="9" fill="#c8dae8">Enemy Logistics Nodes</text>
  <text x="490" y="548" font-size="9" fill="#a0b4c8">As acquired beyond CFL</text>
  <text x="650" y="548" font-size="9" fill="#a0b4c8">Interdict / Destroy</text>
  <text x="810" y="548" font-size="9" fill="#a0b4c8">M270 MLRS / HIMARS</text>
  <text x="1040" y="548" font-size="9" fill="#4a6680">1000m min from civilian areas</text>

  <!-- ── FSCM ─────────────────────────────── -->
  <rect x="218" y="566" width="1214" height="28" fill="#0a1018" stroke="#1e2d3d" stroke-width="1"/>
  <text x="232" y="580" font-size="8" fill="#c8a84b" letter-spacing="3" font-weight="bold">FIRE SUPPORT COORDINATION MEASURES (FSCM)</text>
  <text x="580" y="580" font-size="8" fill="#2d4a6a">FM 3-09 Chapter 5 (April 2023)</text>

  <!-- FSCM items -->
  <rect x="218" y="594" width="596" height="26" fill="#0d1420" stroke="#1e2d3d" stroke-width="1"/>
  <text x="228" y="610" font-size="9" fill="#a0b4c8">Fire Support Coordination Line (FSCL)</text>
  <text x="520" y="610" font-size="9" fill="#c8a84b">PL PHANTOM</text>
  <text x="608" y="610" font-size="8" fill="#4a6680">JFC Auth</text>

  <rect x="218" y="620" width="596" height="26" fill="#0d1420" stroke="#1e2d3d" stroke-width="1"/>
  <text x="228" y="636" font-size="9" fill="#a0b4c8">Coordinated Fire Line (CFL)</text>
  <text x="520" y="636" font-size="9" fill="#c8a84b">PL DRAGON</text>
  <text x="608" y="636" font-size="8" fill="#4a6680">BCT CDR Auth</text>

  <rect x="218" y="646" width="596" height="26" fill="#0d1420" stroke="#1e2d3d" stroke-width="1"/>
  <text x="228" y="662" font-size="9" fill="#a0b4c8">No-Fire Area (NFA) — Hospital TOWN BRAVO</text>
  <text x="520" y="662" font-size="9" fill="#ef4444">500M RADIUS</text>
  <text x="608" y="662" font-size="8" fill="#4a6680">BCT CDR Auth</text>

  <rect x="218" y="672" width="596" height="26" fill="#0d1420" stroke="#1e2d3d" stroke-width="1"/>
  <text x="228" y="688" font-size="9" fill="#a0b4c8">Restrictive Fire Line (RFL)</text>
  <text x="520" y="688" font-size="9" fill="#c8a84b">PL SPECTER</text>
  <text x="608" y="688" font-size="8" fill="#4a6680">DIV CDR Auth</text>

  <!-- FA planning panel -->
  <rect x="822" y="594" width="610" height="104" fill="#0d1420" stroke="#1e2d3d" stroke-width="1"/>
  <text x="836" y="610" font-size="8" fill="#c8a84b" letter-spacing="3" font-weight="bold">FA PLANNING FACTORS // FM 3-09 Tables</text>
  <rect x="836" y="614" width="580" height="1" fill="#7a6420" opacity="0.4"/>
  <text x="836" y="629" font-size="9" fill="#4a6680">System:</text><text x="890" y="629" font-size="9" fill="#c8dae8">M109A7 Paladin (x18 tubes, 3 btry)</text>
  <text x="836" y="644" font-size="9" fill="#4a6680">Max range:</text><text x="908" y="644" font-size="9" fill="#a0b4c8">22,000m (HE) / 36,000m (ERFB)</text>
  <text x="836" y="659" font-size="9" fill="#4a6680">Excalibur:</text><text x="900" y="659" font-size="9" fill="#a0b4c8">GPS-guided // CEP &lt;10m // 40km range</text>
  <text x="836" y="674" font-size="9" fill="#4a6680">Rate:</text><text x="868" y="674" font-size="9" fill="#a0b4c8">200 rds/tube/day (sustained)</text>
  <text x="836" y="689" font-size="9" fill="#4a6680">HIMARS:</text><text x="896" y="689" font-size="9" fill="#a0b4c8">GMLRS 70km // &lt;10m CEP // 6 rnds/ripple</text>

  <!-- Doctrine citations -->
  <rect x="218" y="706" width="1214" height="28" fill="#0a1018" stroke="#1e2d3d" stroke-width="1"/>
  <text x="232" y="720" font-size="8" fill="#2d4a6a" letter-spacing="1">DOCTRINE BASIS:</text>
  <text x="330" y="720" font-size="8" fill="#c8a84b">FM 3-60 &#xA7;2-1</text>
  <text x="400" y="720" font-size="8" fill="#4a6680">|</text>
  <text x="410" y="720" font-size="8" fill="#c8a84b">FM 3-60 &#xA7;4-1 (HPTL)</text>
  <text x="520" y="720" font-size="8" fill="#4a6680">|</text>
  <text x="530" y="720" font-size="8" fill="#c8a84b">FM 3-60 &#xA7;4-12 (AGM)</text>
  <text x="646" y="720" font-size="8" fill="#4a6680">|</text>
  <text x="656" y="720" font-size="8" fill="#c8a84b">FM 3-09 Ch.5 (FSCM)</text>
  <text x="770" y="720" font-size="8" fill="#4a6680">|</text>
  <text x="780" y="720" font-size="8" fill="#c8a84b">JP 3-60 (Joint Targeting)</text>
  <text x="912" y="720" font-size="8" fill="#4a6680">|</text>
  <text x="922" y="720" font-size="8" fill="#c8a84b">ATP 3-09.23 (FA BN)</text>
  <text x="1380" y="720" text-anchor="end" font-size="8" fill="#2d4a6a">IRONFORGE TRAINING AID</text>

  <!-- CLASSIFICATION BANNER BOTTOM -->
  <rect y="882" width="1440" height="18" fill="#004d00"/>
  <text x="720" y="895" text-anchor="middle" font-size="9" fill="#00ee00" font-weight="bold" letter-spacing="3">&#x258C; UNCLASSIFIED &#x258C; IRONFORGE MDMP SIMULATION &#x2014; TRAINING AID ONLY &#x258C; NOT FOR OPERATIONAL USE &#x258C; UNCLASSIFIED &#x258C;</text>
</svg>
