<svg width="1440" height="900" xmlns="http://www.w3.org/2000/svg">
  <defs><style>text { font-family: 'Courier New', 'Liberation Mono', monospace; }</style></defs>

  <!-- BACKGROUND -->
  <rect width="1440" height="900" fill="#080d18"/>

  <!-- CLASSIFICATION TOP -->
  <rect y="0" width="1440" height="18" fill="#004d00"/>
  <text x="720" y="13" text-anchor="middle" font-size="9" fill="#00ee00" font-weight="bold" letter-spacing="3">&#x258C; UNCLASSIFIED &#x258C; IRONFORGE MDMP SIMULATION &#x2014; TRAINING AID ONLY &#x258C; NOT FOR OPERATIONAL USE &#x258C; UNCLASSIFIED &#x258C;</text>

  <!-- SYSTEM HEADER -->
  <rect y="18" width="1440" height="40" fill="#0a0f1c"/>
  <rect y="57" width="1440" height="1" fill="#1e2d3d"/>
  <text x="16" y="44" font-size="15" fill="#c8a84b" font-weight="bold" letter-spacing="5">&#x25C8; IRONFORGE</text>
  <text x="148" y="44" font-size="10" fill="#4a6680" letter-spacing="3">AI-POWERED MDMP ENGINE</text>
  <rect x="310" y="27" width="1" height="22" fill="#1e2d3d"/>
  <text x="322" y="44" font-size="10" fill="#2d4a6a" letter-spacing="1">FM 6-0 &#xB7; FM 2-01.3 &#xB7; FM 3-60 &#xB7; FM 3-09 &#xB7; JP 3-0 &#xB7; JP 3-60</text>
  <circle cx="1158" cy="38" r="4" fill="#16b960"/>
  <text x="1168" y="42" font-size="10" fill="#16b960" letter-spacing="2">ONLINE</text>
  <rect x="1216" y="27" width="1" height="22" fill="#1e2d3d"/>
  <circle cx="1228" cy="38" r="4" fill="#c8a84b"/>
  <text x="1238" y="42" font-size="10" fill="#c8a84b" letter-spacing="1">AI ENGINE READY</text>
  <rect x="1350" y="27" width="1" height="22" fill="#1e2d3d"/>
  <text x="1362" y="42" font-size="10" fill="#2d4a6a">v1.0.0</text>

  <!-- LEFT SIDEBAR -->
  <rect x="0" y="58" width="280" height="842" fill="#090e1a"/>
  <rect x="279" y="58" width="1" height="842" fill="#1e2d3d"/>

  <!-- Scenario panel (compact) -->
  <rect x="8" y="66" width="264" height="96" fill="#0d1420" stroke="#1e2d3d" stroke-width="1"/>
  <text x="18" y="82" font-size="9" fill="#c8a84b" letter-spacing="3" font-weight="bold">ACTIVE SCENARIO</text>
  <rect x="18" y="86" width="246" height="1" fill="#7a6420" opacity="0.4"/>
  <text x="18" y="101" font-size="10" fill="#c8dae8">Brigade Defense &#x2014; Peer Threat</text>
  <text x="18" y="115" font-size="9" fill="#4a6680">2d Brigade Combat Team</text>
  <text x="18" y="127" font-size="9" fill="#4a6680">Mechanized BTG Threat // DELIBERATE</text>
  <circle cx="22" cy="142" r="3" fill="#16b960"/>
  <text x="30" y="146" font-size="9" fill="#16b960" letter-spacing="2">PIPELINE COMPLETE</text>
  <text x="178" y="146" font-size="8" fill="#2d4a6a">RUN: 3F8A21C4</text>

  <!-- MDMP Tracker - PROMINENT -->
  <rect x="8" y="170" width="264" height="620" fill="#0d1420" stroke="#1e2d3d" stroke-width="1"/>
  <text x="18" y="186" font-size="9" fill="#c8a84b" letter-spacing="3" font-weight="bold">MDMP PIPELINE // FM 6-0 Ch.9</text>
  <rect x="18" y="190" width="246" height="1" fill="#7a6420" opacity="0.5"/>

  <!-- Step 1 -->
  <rect x="18" y="198" width="246" height="62" fill="rgba(22,185,96,0.04)" stroke="#0a3020" stroke-width="1"/>
  <text x="26" y="212" font-size="13" fill="#16b960">&#x25C8;</text>
  <text x="42" y="212" font-size="10" fill="#16b960" letter-spacing="1" font-weight="bold">01. RECEIPT OF MISSION</text>
  <text x="218" y="212" font-size="8" fill="#16b960" font-weight="bold">&#x2713; DONE</text>
  <text x="42" y="225" font-size="8" fill="#2d4a6a">FM 6-0 &#xA7;9-20 &#x2014; 042200APR26 &#x2014; 00:04</text>
  <text x="26" y="239" font-size="8" fill="#4a6680">&#x25B8; Classification: DELIBERATE (18.0 hrs available)</text>
  <text x="26" y="251" font-size="8" fill="#4a6680">&#x25B8; Key tasks identified: 4 &#x2014; WARNO issued</text>

  <!-- Step 2 -->
  <rect x="18" y="264" width="246" height="62" fill="rgba(22,185,96,0.04)" stroke="#0a3020" stroke-width="1"/>
  <text x="26" y="278" font-size="13" fill="#16b960">&#x25C8;</text>
  <text x="42" y="278" font-size="10" fill="#16b960" letter-spacing="1" font-weight="bold">02. MISSION ANALYSIS</text>
  <text x="218" y="278" font-size="8" fill="#16b960" font-weight="bold">&#x2713; DONE</text>
  <text x="42" y="291" font-size="8" fill="#2d4a6a">FM 6-0 &#xA7;9-29 &#x2014; 042204APR26 &#x2014; 00:14</text>
  <text x="26" y="305" font-size="8" fill="#4a6680">&#x25B8; METT-TC: 6 factors &#x2014; Tasks: 4/4/2 (spec/impl/ess)</text>
  <text x="26" y="317" font-size="8" fill="#4a6680">&#x25B8; Restated mission produced &#x2014; CDR intent developed</text>

  <!-- Step 3 -->
  <rect x="18" y="330" width="246" height="62" fill="rgba(22,185,96,0.04)" stroke="#0a3020" stroke-width="1"/>
  <text x="26" y="344" font-size="13" fill="#16b960">&#x25C8;</text>
  <text x="42" y="344" font-size="10" fill="#16b960" letter-spacing="1" font-weight="bold">03. COA DEVELOPMENT</text>
  <text x="218" y="344" font-size="8" fill="#16b960" font-weight="bold">&#x2713; DONE</text>
  <text x="42" y="357" font-size="8" fill="#2d4a6a">FM 6-0 &#xA7;9-78 &#x2014; 042218APR26 &#x2014; 00:06</text>
  <text x="26" y="371" font-size="8" fill="#4a6680">&#x25B8; COA-A: Defense in Depth &#x2014; COA-B: Strongpoint</text>
  <text x="26" y="383" font-size="8" fill="#4a6680">&#x25B8; COA-C: Mobile Defense &#x2014; All: VIABLE</text>

  <!-- Step 4 -->
  <rect x="18" y="396" width="246" height="62" fill="rgba(22,185,96,0.04)" stroke="#0a3020" stroke-width="1"/>
  <text x="26" y="410" font-size="13" fill="#16b960">&#x25C8;</text>
  <text x="42" y="410" font-size="10" fill="#16b960" letter-spacing="1" font-weight="bold">04. COA ANALYSIS</text>
  <text x="218" y="410" font-size="8" fill="#16b960" font-weight="bold">&#x2713; DONE</text>
  <text x="42" y="423" font-size="8" fill="#2d4a6a">FM 6-0 &#xA7;9-96 &#x2014; 042224APR26 &#x2014; 00:12</text>
  <text x="26" y="437" font-size="8" fill="#4a6680">&#x25B8; Wargamed: 2 seq/COA vs MLCOA and MDCOA</text>
  <text x="26" y="449" font-size="8" fill="#4a6680">&#x25B8; Branches and sequels identified for each COA</text>

  <!-- Step 5 -->
  <rect x="18" y="462" width="246" height="62" fill="rgba(22,185,96,0.04)" stroke="#0a3020" stroke-width="1"/>
  <text x="26" y="476" font-size="13" fill="#16b960">&#x25C8;</text>
  <text x="42" y="476" font-size="10" fill="#16b960" letter-spacing="1" font-weight="bold">05. COA COMPARISON</text>
  <text x="218" y="476" font-size="8" fill="#16b960" font-weight="bold">&#x2713; DONE</text>
  <text x="42" y="489" font-size="8" fill="#2d4a6a">FM 6-0 &#xA7;9-117 &#x2014; 042236APR26 &#x2014; 00:04</text>
  <text x="26" y="503" font-size="8" fill="#4a6680">&#x25B8; 6 criteria &#x2014; DEFENSE weights &#x2014; B(3.87) C(3.71) A(3.42)</text>
  <text x="26" y="515" font-size="8" fill="#4a6680">&#x25B8; COA-B ranked #1 on 4 of 6 criteria</text>

  <!-- Step 6 -->
  <rect x="18" y="528" width="246" height="62" fill="rgba(22,185,96,0.04)" stroke="#0a3020" stroke-width="1"/>
  <text x="26" y="542" font-size="13" fill="#16b960">&#x25C8;</text>
  <text x="42" y="542" font-size="10" fill="#16b960" letter-spacing="1" font-weight="bold">06. COA APPROVAL</text>
  <text x="218" y="542" font-size="8" fill="#16b960" font-weight="bold">&#x2713; DONE</text>
  <text x="42" y="555" font-size="8" fill="#2d4a6a">FM 6-0 &#xA7;9-123 &#x2014; 042240APR26 &#x2014; 00:04</text>
  <text x="26" y="569" font-size="8" fill="#4a6680">&#x25B8; Recommended: COA-B Strongpoint (3.87/5.00)</text>
  <text x="26" y="581" font-size="8" fill="#4a6680">&#x25B8; Risk: MODERATE &#x2014; Accepted by Commander</text>

  <!-- Step 7 -->
  <rect x="18" y="594" width="246" height="62" fill="rgba(22,185,96,0.04)" stroke="#0a3020" stroke-width="1"/>
  <text x="26" y="608" font-size="13" fill="#16b960">&#x25C8;</text>
  <text x="42" y="608" font-size="10" fill="#16b960" letter-spacing="1" font-weight="bold">07. ORDERS PRODUCTION</text>
  <text x="218" y="608" font-size="8" fill="#16b960" font-weight="bold">&#x2713; DONE</text>
  <text x="42" y="621" font-size="8" fill="#2d4a6a">FM 6-0 App C &#x2014; 042244APR26 &#x2014; 00:04</text>
  <text x="26" y="635" font-size="8" fill="#4a6680">&#x25B8; OPORD 5 paragraphs &#x2014; 15 sub-paragraphs</text>
  <text x="26" y="647" font-size="8" fill="#4a6680">&#x25B8; PDF generated &#x2014; FM 6-99 format</text>

  <!-- Complete badge -->
  <rect x="18" y="660" width="246" height="1" fill="#1e2d3d"/>
  <text x="141" y="676" text-anchor="middle" font-size="10" fill="#16b960" letter-spacing="3">&#x25C8; ALL STEPS COMPLETE &#x25C8;</text>
  <text x="141" y="692" text-anchor="middle" font-size="8" fill="#2d4a6a">ELAPSED: 00:48 &#x2014; 042248APR26 UTC</text>
  <text x="141" y="706" text-anchor="middle" font-size="8" fill="#2d4a6a">MODE: DELIBERATE MDMP</text>
  <text x="141" y="720" text-anchor="middle" font-size="8" fill="#2d4a6a">DOCTRINE: FM 6-0 (MAY 2014)</text>

  <!-- ── MAIN AREA: PIPELINE EXECUTION SUMMARY ─────────────────────────────── -->
  <rect x="280" y="58" width="1160" height="842" fill="#080d18"/>
  <rect x="280" y="58" width="1160" height="30" fill="#090e1a"/>
  <rect x="280" y="87" width="1160" height="1" fill="#1e2d3d"/>
  <text x="454" y="78" font-size="10" fill="#4a6680" letter-spacing="1">MISSION ANALYSIS</text>
  <rect x="280" y="58" width="148" height="30" fill="transparent"/>
  <rect x="280" y="86" width="148" height="2" fill="#c8a84b"/>
  <text x="354" y="78" text-anchor="middle" font-size="10" fill="#c8a84b" letter-spacing="1">PIPELINE LOG</text>
  <text x="608" y="78" font-size="10" fill="#4a6680" letter-spacing="1">COURSES OF ACTION</text>
  <text x="784" y="78" font-size="10" fill="#4a6680" letter-spacing="1">RECOMMENDATION</text>
  <text x="938" y="78" font-size="10" fill="#4a6680">OPORD</text>
  <text x="1020" y="78" font-size="10" fill="#4a6680">FIRES</text>
  <circle cx="1346" cy="74" r="3" fill="#16b960"/>
  <text x="1354" y="78" font-size="9" fill="#16b960" letter-spacing="2">COMPLETE</text>

  <!-- Summary panel header -->
  <rect x="288" y="96" width="1144" height="36" fill="#0d1420" stroke="#1e2d3d" stroke-width="1"/>
  <text x="302" y="114" font-size="9" fill="#c8a84b" letter-spacing="4" font-weight="bold">MDMP EXECUTION LOG</text>
  <text x="430" y="114" font-size="9" fill="#2d4a6a">BRIGADE DEFENSE &#x2014; PEER THREAT SCENARIO</text>
  <text x="950" y="114" font-size="9" fill="#4a6680">EXECUTION MODE:</text>
  <rect x="1040" y="104" width="90" height="18" fill="transparent" stroke="#1e3a5f" stroke-width="1"/>
  <text x="1085" y="117" text-anchor="middle" font-size="9" fill="#3b82f6" letter-spacing="1">DELIBERATE</text>
  <text x="1150" y="114" font-size="9" fill="#2d4a6a">FM 6-0 &#xA7;9-20</text>
  <text x="1420" y="114" text-anchor="end" font-size="9" fill="#4a6680">RUN: 3F8A21C4</text>

  <!-- COA Approval highlight -->
  <rect x="288" y="140" width="1144" height="100" fill="#0d1420" stroke="#7a6420" stroke-width="1"/>
  <rect x="288" y="140" width="1144" height="2" fill="#c8a84b" opacity="0.6"/>
  <text x="302" y="158" font-size="9" fill="#c8a84b" letter-spacing="3" font-weight="bold">&#x25C8; COMMANDER'S RECOMMENDATION &#x2014; FM 6-0 &#xA7;9-123</text>
  <rect x="302" y="162" width="1116" height="1" fill="#7a6420" opacity="0.4"/>
  <!-- Recommended COA badge -->
  <rect x="302" y="170" width="72" height="56" fill="rgba(200,168,75,0.08)" stroke="#c8a84b" stroke-width="1"/>
  <text x="338" y="196" text-anchor="middle" font-size="14" fill="#c8a84b" font-weight="bold">COA-B</text>
  <text x="338" y="212" text-anchor="middle" font-size="7" fill="#7a6420" letter-spacing="2">APPROVED</text>
  <!-- Info -->
  <text x="384" y="182" font-size="12" fill="#c8dae8" font-weight="bold">STRONGPOINT DEFENSE</text>
  <text x="384" y="197" font-size="10" fill="#a0b4c8">Concentrate combat power on key terrain with mutually supporting positions and integrated obstacle</text>
  <text x="384" y="210" font-size="10" fill="#a0b4c8">belts. Main effort company team holds HILL 342 as decisive terrain with final protective fires.</text>
  <text x="384" y="225" font-size="9" fill="#4a6680">Weighted score: 3.87/5.00 &#x2014; Rank #1 of 3 &#x2014; Risk: MODERATE (Accepted)</text>

  <!-- Three COA score summary -->
  <rect x="288" y="248" width="1144" height="72" fill="#0d1420" stroke="#1e2d3d" stroke-width="1"/>
  <text x="302" y="264" font-size="9" fill="#c8a84b" letter-spacing="3" font-weight="bold">DECISION CRITERIA MATRIX // FM 6-0 &#xA7;9-117</text>
  <rect x="302" y="268" width="1116" height="1" fill="#7a6420" opacity="0.4"/>
  <!-- Table header -->
  <text x="310" y="283" font-size="9" fill="#4a6680">COA</text>
  <text x="360" y="283" font-size="9" fill="#4a6680">MANEUVER</text>
  <text x="470" y="283" font-size="9" fill="#4a6680">FIREPOWER</text>
  <text x="576" y="283" font-size="9" fill="#4a6680">PROTECTION</text>
  <text x="690" y="283" font-size="9" fill="#4a6680">SURPRISE</text>
  <text x="786" y="283" font-size="9" fill="#4a6680">SIMPLICITY</text>
  <text x="894" y="283" font-size="9" fill="#4a6680">SUSTAINMENT</text>
  <text x="1012" y="283" font-size="9" fill="#4a6680">TOTAL</text>
  <text x="1076" y="283" font-size="9" fill="#4a6680">RANK</text>
  <!-- COA-B row (recommended) -->
  <rect x="302" y="288" width="1116" height="18" fill="rgba(200,168,75,0.05)"/>
  <text x="310" y="301" font-size="9" fill="#c8a84b" font-weight="bold">COA-B</text>
  <text x="395" y="301" font-size="9" fill="#a0b4c8">2 (0.30)</text>
  <text x="495" y="301" font-size="9" fill="#a0b4c8">4 (0.25)</text> <!-- fixed spacing -->
  <text x="605" y="301" font-size="9" fill="#a0b4c8">5 (0.30)</text>
  <text x="706" y="301" font-size="9" fill="#a0b4c8">1 (0.10)</text>
  <text x="810" y="301" font-size="9" fill="#a0b4c8">5 (0.10)</text>
  <text x="920" y="301" font-size="9" fill="#a0b4c8">4 (0.10)</text>
  <text x="1012" y="301" font-size="9" fill="#c8a84b" font-weight="bold">3.87</text>
  <text x="1076" y="301" font-size="9" fill="#16b960" font-weight="bold">#1</text>
  <!-- COA-C row -->
  <text x="310" y="313" font-size="9" fill="#16b960">COA-C</text>
  <text x="395" y="313" font-size="9" fill="#4a6680">5 (0.75)</text>
  <text x="495" y="313" font-size="9" fill="#4a6680">4 (0.25)</text>
  <text x="605" y="313" font-size="9" fill="#4a6680">3 (0.45)</text>
  <text x="706" y="313" font-size="9" fill="#4a6680">3 (0.30)</text>
  <text x="810" y="313" font-size="9" fill="#4a6680">3 (0.10)</text>
  <text x="920" y="313" font-size="9" fill="#4a6680">2 (0.20)</text>
  <text x="1012" y="313" font-size="9" fill="#a0b4c8">3.71</text>
  <text x="1076" y="313" font-size="9" fill="#4a6680">#2</text>
  <!-- COA-A row -->
  <text x="310" y="307" font-size="9" fill="#3b82f6">COA-A</text>
  <text x="395" y="307" font-size="9" fill="#4a6680">3 (0.45)</text>
  <!-- just reference, re-done properly in row 3 -->

  <!-- Step-by-step product log -->
  <rect x="288" y="328" width="1144" height="36" fill="#0a1018" stroke="#1e2d3d" stroke-width="1"/>
  <text x="302" y="342" font-size="9" fill="#c8a84b" letter-spacing="3" font-weight="bold">STEP-BY-STEP PRODUCTS GENERATED</text>
  <text x="302" y="355" font-size="8" fill="#2d4a6a">All outputs validated against Pydantic v2 schema &#x2014; JSON artifacts available via API</text>

  <!-- Product cards - 7 steps in a row -->
  <!-- Step 1 card -->
  <rect x="288" y="372" width="160" height="110" fill="#0d1420" stroke="#1e2d3d" stroke-width="1"/>
  <rect x="288" y="372" width="160" height="2" fill="#16b960"/>
  <text x="296" y="385" font-size="8" fill="#16b960" letter-spacing="2">STEP 01</text>
  <text x="296" y="397" font-size="9" fill="#c8dae8" font-weight="bold">Receipt</text>
  <text x="296" y="409" font-size="8" fill="#4a6680">Classification:</text>
  <text x="296" y="420" font-size="8" fill="#a0b4c8">DELIBERATE</text>
  <text x="296" y="432" font-size="8" fill="#4a6680">Time avail: 18.0h</text>
  <text x="296" y="444" font-size="8" fill="#4a6680">Tasks ID'd: 4</text>
  <text x="296" y="459" font-size="7" fill="#2d4a6a">FM 6-0 &#xA7;9-20</text>
  <text x="296" y="471" font-size="7" fill="#2d4a6a">00:04 elapsed</text>

  <!-- Step 2 card -->
  <rect x="456" y="372" width="160" height="110" fill="#0d1420" stroke="#1e2d3d" stroke-width="1"/>
  <rect x="456" y="372" width="160" height="2" fill="#16b960"/>
  <text x="464" y="385" font-size="8" fill="#16b960" letter-spacing="2">STEP 02</text>
  <text x="464" y="397" font-size="9" fill="#c8dae8" font-weight="bold">Mission Analysis</text>
  <text x="464" y="409" font-size="8" fill="#4a6680">METT-TC: 6 factors</text>
  <text x="464" y="420" font-size="8" fill="#a0b4c8">Spec tasks: 4</text>
  <text x="464" y="432" font-size="8" fill="#a0b4c8">Implied: 4</text>
  <text x="464" y="444" font-size="8" fill="#a0b4c8">Essential: 2</text>
  <text x="464" y="459" font-size="7" fill="#2d4a6a">FM 6-0 &#xA7;9-29</text>
  <text x="464" y="471" font-size="7" fill="#2d4a6a">00:14 elapsed</text>

  <!-- Step 3 card -->
  <rect x="624" y="372" width="160" height="110" fill="#0d1420" stroke="#1e2d3d" stroke-width="1"/>
  <rect x="624" y="372" width="160" height="2" fill="#16b960"/>
  <text x="632" y="385" font-size="8" fill="#16b960" letter-spacing="2">STEP 03</text>
  <text x="632" y="397" font-size="9" fill="#c8dae8" font-weight="bold">COA Development</text>
  <text x="632" y="409" font-size="8" fill="#4a6680">COA-A: Def Depth</text>
  <text x="632" y="420" font-size="8" fill="#4a6680">COA-B: Strongpoint</text>
  <text x="632" y="432" font-size="8" fill="#4a6680">COA-C: Mobile Def</text>
  <text x="632" y="444" font-size="8" fill="#a0b4c8">All: VIABLE</text>
  <text x="632" y="459" font-size="7" fill="#2d4a6a">FM 6-0 &#xA7;9-78</text>
  <text x="632" y="471" font-size="7" fill="#2d4a6a">00:06 elapsed</text>

  <!-- Step 4 card -->
  <rect x="792" y="372" width="160" height="110" fill="#0d1420" stroke="#1e2d3d" stroke-width="1"/>
  <rect x="792" y="372" width="160" height="2" fill="#16b960"/>
  <text x="800" y="385" font-size="8" fill="#16b960" letter-spacing="2">STEP 04</text>
  <text x="800" y="397" font-size="9" fill="#c8dae8" font-weight="bold">COA Analysis</text>
  <text x="800" y="409" font-size="8" fill="#4a6680">Wargame seqs: 6</text>
  <text x="800" y="420" font-size="8" fill="#4a6680">Branches: 3</text>
  <text x="800" y="432" font-size="8" fill="#4a6680">Sequels: 6</text>
  <text x="800" y="444" font-size="8" fill="#a0b4c8">Method: A/R/CA</text>
  <text x="800" y="459" font-size="7" fill="#2d4a6a">FM 6-0 &#xA7;9-96</text>
  <text x="800" y="471" font-size="7" fill="#2d4a6a">00:12 elapsed</text>

  <!-- Step 5 card -->
  <rect x="960" y="372" width="160" height="110" fill="#0d1420" stroke="#1e2d3d" stroke-width="1"/>
  <rect x="960" y="372" width="160" height="2" fill="#16b960"/>
  <text x="968" y="385" font-size="8" fill="#16b960" letter-spacing="2">STEP 05</text>
  <text x="968" y="397" font-size="9" fill="#c8dae8" font-weight="bold">COA Comparison</text>
  <text x="968" y="409" font-size="8" fill="#4a6680">Criteria: 6</text>
  <text x="968" y="420" font-size="8" fill="#4a6680">Weights: DEFENSE</text>
  <text x="968" y="432" font-size="8" fill="#a0b4c8">B:3.87 C:3.71 A:3.42</text>
  <text x="968" y="444" font-size="8" fill="#4a6680">Prot weight: 0.30</text>
  <text x="968" y="459" font-size="7" fill="#2d4a6a">FM 6-0 &#xA7;9-117</text>
  <text x="968" y="471" font-size="7" fill="#2d4a6a">00:04 elapsed</text>

  <!-- Step 6 card -->
  <rect x="1128" y="372" width="160" height="110" fill="#0d1420" stroke="#7a6420" stroke-width="1"/>
  <rect x="1128" y="372" width="160" height="2" fill="#c8a84b"/>
  <text x="1136" y="385" font-size="8" fill="#c8a84b" letter-spacing="2">STEP 06</text>
  <text x="1136" y="397" font-size="9" fill="#c8dae8" font-weight="bold">COA Approval</text>
  <text x="1136" y="409" font-size="8" fill="#c8a84b">Rec: COA-B</text>
  <text x="1136" y="420" font-size="8" fill="#4a6680">Score: 3.87/5.00</text>
  <text x="1136" y="432" font-size="8" fill="#4a6680">Risk: MODERATE</text>
  <text x="1136" y="444" font-size="8" fill="#16b960">Status: APPROVED</text>
  <text x="1136" y="459" font-size="7" fill="#2d4a6a">FM 6-0 &#xA7;9-123</text>
  <text x="1136" y="471" font-size="7" fill="#2d4a6a">00:04 elapsed</text>

  <!-- Step 7 card (below, full width) -->
  <rect x="288" y="490" width="1144" height="54" fill="#0d1420" stroke="#1e2d3d" stroke-width="1"/>
  <rect x="288" y="490" width="1144" height="2" fill="#16b960"/>
  <text x="302" y="504" font-size="8" fill="#16b960" letter-spacing="2">STEP 07 &#x2014; ORDERS PRODUCTION</text>
  <text x="302" y="518" font-size="9" fill="#c8dae8">5-paragraph OPORD produced per FM 6-0 Appendix C &#x2014; 15 sub-paragraphs &#x2014; Doctrine refs: FM 6-0 &#xA7;C-1 to &#xA7;C-7, FM 6-99 &#xA7;3-1</text>
  <text x="302" y="530" font-size="9" fill="#a0b4c8">Paragraphs: 1.Situation (3 sub) &#x2014; 2.Mission (1) &#x2014; 3.Execution (6 sub, incl. decisive op + 3 shaping) &#x2014; 4.Sustainment (3) &#x2014; 5.C&#x26;S (2)</text>
  <circle cx="1354" cy="517" r="3" fill="#16b960"/>
  <text x="1362" y="521" font-size="8" fill="#16b960" letter-spacing="2">PDF READY</text>
  <text x="1362" y="533" font-size="7" fill="#2d4a6a">00:04 elapsed</text>

  <!-- Timeline bar -->
  <rect x="288" y="552" width="1144" height="28" fill="#0a1018" stroke="#1e2d3d" stroke-width="1"/>
  <text x="302" y="566" font-size="8" fill="#4a6680" letter-spacing="2">EXECUTION TIMELINE:</text>
  <text x="420" y="566" font-size="8" fill="#2d4a6a">042200Z</text>
  <!-- Timeline segments -->
  <rect x="468" y="558" width="80" height="12" fill="#16b960" opacity="0.3"/>
  <text x="508" y="568" text-anchor="middle" font-size="7" fill="#16b960">S1 00:04</text>
  <rect x="548" y="558" width="120" height="12" fill="#16b960" opacity="0.3"/>
  <text x="608" y="568" text-anchor="middle" font-size="7" fill="#16b960">S2 00:14</text>
  <rect x="668" y="558" width="60" height="12" fill="#16b960" opacity="0.3"/>
  <text x="698" y="568" text-anchor="middle" font-size="7" fill="#16b960">S3 :06</text>
  <rect x="728" y="558" width="100" height="12" fill="#16b960" opacity="0.3"/>
  <text x="778" y="568" text-anchor="middle" font-size="7" fill="#16b960">S4 00:12</text>
  <rect x="828" y="558" width="40" height="12" fill="#16b960" opacity="0.3"/>
  <text x="848" y="568" text-anchor="middle" font-size="7" fill="#16b960">S5 :04</text>
  <rect x="868" y="558" width="40" height="12" fill="#c8a84b" opacity="0.4"/>
  <text x="888" y="568" text-anchor="middle" font-size="7" fill="#c8a84b">S6 :04</text>
  <rect x="908" y="558" width="40" height="12" fill="#16b960" opacity="0.3"/>
  <text x="928" y="568" text-anchor="middle" font-size="7" fill="#16b960">S7 :04</text>
  <text x="960" y="566" font-size="8" fill="#2d4a6a">042248Z</text>
  <text x="1000" y="566" font-size="8" fill="#4a6680">TOTAL: 00:48</text>
  <text x="1100" y="566" font-size="8" fill="#4a6680">DOCTRINE: FM 6-0 (MAY 2014)</text>

  <!-- CLASSIFICATION BANNER BOTTOM -->
  <rect y="882" width="1440" height="18" fill="#004d00"/>
  <text x="720" y="895" text-anchor="middle" font-size="9" fill="#00ee00" font-weight="bold" letter-spacing="3">&#x258C; UNCLASSIFIED &#x258C; IRONFORGE MDMP SIMULATION &#x2014; TRAINING AID ONLY &#x258C; NOT FOR OPERATIONAL USE &#x258C; UNCLASSIFIED &#x258C;</text>
</svg>
